<!DOCTYPE svg PUBLIC "-//W3C//DTD SVG 1.1//EN" "http://www.w3.org/Graphics/SVG/1.1/DTD/svg11.dtd">
<!-- Uploaded to: SVG Repo, www.svgrepo.com, Transformed by: SVG Repo Mixer Tools -->
<svg fill="#00C6F4" width="800px" height="800px" viewBox="0 0 24 24" xmlns="http://www.w3.org/2000/svg">
<g id="SVGRepo_bgCarrier" stroke-width="0"/>
<g id="SVGRepo_tracerCarrier" stroke-linecap="round" stroke-linejoin="round"/>
<g id="SVGRepo_iconCarrier">
<path d="M7.493,22.862a1,1,0,0,0,1.244-.186l11-12A1,1,0,0,0,19,9H13.133l.859-6.876a1,1,0,0,0-1.8-.712l-8,11A1,1,0,0,0,5,14H9.612l-2.56,7.684A1,1,0,0,0,7.493,22.862ZM6.964,12l4.562-6.273-.518,4.149A1,1,0,0,0,12,11h4.727l-6.295,6.867,1.516-4.551A1,1,0,0,0,11,12Z"/>
</g>
</svg>