<!DOCTYPE svg PUBLIC "-//W3C//DTD SVG 1.1//EN" "http://www.w3.org/Graphics/SVG/1.1/DTD/svg11.dtd">
<!-- Uploaded to: SVG Repo, www.svgrepo.com, Transformed by: SVG Repo Mixer Tools -->
<svg fill="#25548A" version="1.1" id="Capa_1" xmlns="http://www.w3.org/2000/svg" xmlns:xlink="http://www.w3.org/1999/xlink" width="800px" height="800px" viewBox="0 0 39.15 39.15" xml:space="preserve">
<g id="SVGRepo_bgCarrier" stroke-width="0"/>
<g id="SVGRepo_tracerCarrier" stroke-linecap="round" stroke-linejoin="round"/>
<g id="SVGRepo_iconCarrier"> <g> <g id="Layer_23_28_"> <g> <path d="M0,6.526v26.098h39.15V6.526H0z M3.223,21.384c-0.694,0-1.259-0.562-1.259-1.258s0.564-1.258,1.259-1.258 s1.257,0.562,1.257,1.258S3.918,21.384,3.223,21.384z M35.377,28.853L6.492,28.851V10.3h28.885V28.853z"/> <path d="M8.243,19.184h25.166v-6.166H8.243V19.184z M8.743,13.518h24.166v5.166H8.743V13.518z"/> <path d="M8.22,25.731h7.74v-5.563H8.22V25.731z M8.72,20.669h6.74v4.562H8.72V20.669z"/> <path d="M16.927,25.731h7.738v-5.563h-7.738V25.731z M17.427,20.669h6.738v4.562h-6.738V20.669z"/> <path d="M25.692,25.731h7.739v-5.563h-7.739V25.731z M26.192,20.669h6.739v4.562h-6.739V20.669z"/> <rect x="8.22" y="26.997" width="6.977" height="0.484"/> <rect x="8.22" y="27.888" width="7.74" height="0.484"/> <rect x="16.925" y="26.997" width="6.977" height="0.484"/> <rect x="16.925" y="27.888" width="7.74" height="0.484"/> <rect x="25.768" y="26.958" width="6.978" height="0.484"/> <rect x="25.768" y="27.849" width="7.74" height="0.482"/> <path d="M19.78,10.997H8.218v1.406h11.563L19.78,10.997L19.78,10.997z M19.28,11.903H8.718v-0.406h10.563L19.28,11.903 L19.28,11.903z"/> </g> </g> </g> </g>
</svg>